HIERARCHY
ROOT hip
{
  OFFSET -193.79 83.7881 -19.0119
  CHANNELS 6 Xposition Yposition Zposition Zrotation Xrotation Yrotation
  JOINT abdomen
  {
    OFFSET 0 20.6881 -0.73152
    CHANNELS 3 Zrotation Xrotation Yrotation
    JOINT chest
    {
      OFFSET 0 11.7043 -0.48768
      CHANNELS 3 Zrotation Xrotation Yrotation
      JOINT neck
      {
        OFFSET 0 22.1894 -2.19456
        CHANNELS 3 Zrotation Xrotation Yrotation
        JOINT head
        {
          OFFSET -0.24384 7.07133 1.2192
          CHANNELS 3 Zrotation Xrotation Yrotation
          JOINT leftEye
          {
            OFFSET 4.14528 8.04674 8.04672
            CHANNELS 3 Zrotation Xrotation Yrotation
            End Site
            {
              OFFSET 1 0 0
            }
          }
          JOINT rightEye
          {
            OFFSET -3.6576 8.04674 8.04672
            CHANNELS 3 Zrotation Xrotation Yrotation
            End Site
            {
              OFFSET 1 0 0
            }
          }
        }
      }
      JOINT rCollar
      {
        OFFSET -2.68224 19.2634 -4.8768
        CHANNELS 3 Zrotation Xrotation Yrotation
        JOINT rShldr
        {
          OFFSET -8.77824 -1.95073 1.46304
          CHANNELS 3 Zrotation Xrotation Yrotation
          JOINT rForeArm
          {
            OFFSET -28.1742 -1.7115 0.48768
            CHANNELS 3 Zrotation Xrotation Yrotation
            JOINT rHand
            {
              OFFSET -22.5879 0.773209 7.07136
              CHANNELS 3 Zrotation Xrotation Yrotation
              JOINT rThumb1
              {
                OFFSET -1.2192 -0.487915 3.41376
                CHANNELS 3 Zrotation Xrotation Yrotation
                JOINT rThumb2
                {
                  OFFSET -3.37035 -0.52449 3.41376
                  CHANNELS 3 Zrotation Xrotation Yrotation
                  End Site
                  {
                    OFFSET -1.78271 -1.18214 1.43049
                  }
                }
              }
              JOINT rIndex1
              {
                OFFSET -7.75947 0.938293 5.60832
                CHANNELS 3 Zrotation Xrotation Yrotation
                JOINT rIndex2
                {
                  OFFSET -2.54057 -0.884171 1.56538
                  CHANNELS 3 Zrotation Xrotation Yrotation
                  End Site
                  {
                    OFFSET -1.62519 -0.234802 1.16502
                  }
                }
              }
              JOINT rMid1
              {
                OFFSET -8.24714 1.18213 3.41376
                CHANNELS 3 Zrotation Xrotation Yrotation
                JOINT rMid2
                {
                  OFFSET -3.10165 -0.590103 1.0647
                  CHANNELS 3 Zrotation Xrotation Yrotation
                  End Site
                  {
                    OFFSET -2.48547 -0.328903 0.83742
                  }
                }
              }
              JOINT rRing1
              {
                OFFSET -8.82822 0.546677 1.51678
                CHANNELS 3 Zrotation Xrotation Yrotation
                JOINT rRing2
                {
                  OFFSET -2.60934 -0.819778 -0.0198488
                  CHANNELS 3 Zrotation Xrotation Yrotation
                  End Site
                  {
                    OFFSET -2.33842 -0.294052 0.168128
                  }
                }
              }
              JOINT rPinky1
              {
                OFFSET -8.27202 -0.0477905 -0.4584
                CHANNELS 3 Zrotation Xrotation Yrotation
                JOINT rPinky2
                {
                  OFFSET -1.82734 -0.647385 -0.700984
                  CHANNELS 3 Zrotation Xrotation Yrotation
                  End Site
                  {
                    OFFSET -1.69225 -0.51767 -0.607171
                  }
                }
              }
            }
          }
        }
      }
      JOINT lCollar
      {
        OFFSET 2.68224 19.2634 -4.8768
        CHANNELS 3 Zrotation Xrotation Yrotation
        JOINT lShldr
        {
          OFFSET 8.77824 -1.95073 1.46304
          CHANNELS 3 Zrotation Xrotation Yrotation
          JOINT lForeArm
          {
            OFFSET 28.1742 -1.7115 0.48768
            CHANNELS 3 Zrotation Xrotation Yrotation
            JOINT lHand
            {
              OFFSET 22.5879 0.773209 7.07136
              CHANNELS 3 Zrotation Xrotation Yrotation
              JOINT lThumb1
              {
                OFFSET 1.2192 -0.487915 3.41376
                CHANNELS 3 Zrotation Xrotation Yrotation
                JOINT lThumb2
                {
                  OFFSET 3.37035 -0.52449 3.41376
                  CHANNELS 3 Zrotation Xrotation Yrotation
                  End Site
                  {
                    OFFSET 1.78271 -1.18214 1.43049
                  }
                }
              }
              JOINT lIndex1
              {
                OFFSET 7.75947 0.938293 5.60832
                CHANNELS 3 Zrotation Xrotation Yrotation
                JOINT lIndex2
                {
                  OFFSET 2.54057 -0.884171 1.56538
                  CHANNELS 3 Zrotation Xrotation Yrotation
                  End Site
                  {
                    OFFSET 1.62519 -0.234802 1.16502
                  }
                }
              }
              JOINT lMid1
              {
                OFFSET 8.24714 1.18213 3.41376
                CHANNELS 3 Zrotation Xrotation Yrotation
                JOINT lMid2
                {
                  OFFSET 3.10165 -0.590103 1.0647
                  CHANNELS 3 Zrotation Xrotation Yrotation
                  End Site
                  {
                    OFFSET 2.48547 -0.328903 0.83742
                  }
                }
              }
              JOINT lRing1
              {
                OFFSET 8.82822 0.546677 1.51678
                CHANNELS 3 Zrotation Xrotation Yrotation
                JOINT lRing2
                {
                  OFFSET 2.60934 -0.819778 -0.0198488
                  CHANNELS 3 Zrotation Xrotation Yrotation
                  End Site
                  {
                    OFFSET 2.33842 -0.294052 0.168128
                  }
                }
              }
              JOINT lPinky1
              {
                OFFSET 8.27202 -0.0477905 -0.4584
                CHANNELS 3 Zrotation Xrotation Yrotation
                JOINT lPinky2
                {
                  OFFSET 1.82734 -0.647385 -0.700984
                  CHANNELS 3 Zrotation Xrotation Yrotation
                  End Site
                  {
                    OFFSET 1.69225 -0.51767 -0.607171
                  }
                }
              }
            }
          }
        }
      }
    }
  }
  JOINT rButtock
  {
    OFFSET -8.77824 4.35084 1.2192
    CHANNELS 3 Zrotation Xrotation Yrotation
    JOINT rThigh
    {
      OFFSET 0 -1.70687 -2.19456
      CHANNELS 3 Zrotation Xrotation Yrotation
      JOINT rShin
      {
        OFFSET 0 -36.8199 0.73152
        CHANNELS 3 Zrotation Xrotation Yrotation
        JOINT rFoot
        {
          OFFSET 0.73152 -45.1104 -5.12064
          CHANNELS 3 Zrotation Xrotation Yrotation
          End Site
          {
            OFFSET -1.1221 -3.69964 12.103
          }
        }
      }
    }
  }
  JOINT lButtock
  {
    OFFSET 8.77824 4.35084 1.2192
    CHANNELS 3 Zrotation Xrotation Yrotation
    JOINT lThigh
    {
      OFFSET 0 -1.70687 -2.19456
      CHANNELS 3 Zrotation Xrotation Yrotation
      JOINT lShin
      {
        OFFSET 0 -36.8199 0.73152
        CHANNELS 3 Zrotation Xrotation Yrotation
        JOINT lFoot
        {
          OFFSET -0.73152 -45.1104 -5.12064
          CHANNELS 3 Zrotation Xrotation Yrotation
          End Site
          {
            OFFSET 1.1221 -3.69964 12.103
          }
        }
      }
    }
  }
}
MOTION
Frames:	4
Frame Time:	0.00833333
171.315 79.8642 13.1606 4.49399 -10.1853 -123.291 0.743656 -3.83018 14.4003 -4.24972 -15.5477 3.93591 12.1882 2.08343 7.29205 -11.6 17.0049 17.5276 -0 0 0 -0 0 0 5.10017e-014 -3.27009e-013 3.53141e-013 62.5586 62.3084 1.90256 -20.4335 -13.5669 39.743 -0.00115991 0.972442 0.136681 -5.58249e-010 -3.69945e-010 -1.05115e-009 -9.61486e-010 -6.41715e-010 -1.81485e-009 -5.58257e-010 -3.69937e-010 -1.05117e-009 7.73091 5.47488 0.417314 -5.58252e-010 -3.69945e-010 -1.05115e-009 2.90554 0.965183 0.102902 -5.58242e-010 -3.69945e-010 -1.05115e-009 10.2786 0.731801 0.0259123 -5.58248e-010 -3.69945e-010 -1.05114e-009 2.22167 -0.733487 -0.20892 5.09781e-014 -3.26993e-013 3.52942e-013 -64.6882 10.07 22.751 12.5848 -5.86731 -22.7476 8.56783e-005 -0.264303 0.0371456 -1.87638e-010 -1.67843e-009 -1.54959e-009 -3.27825e-010 -2.90473e-009 -2.68e-009 -1.87648e-010 -1.67843e-009 -1.54958e-009 -7.73091 5.47488 -0.417314 -1.87638e-010 -1.67843e-009 -1.54959e-009 -2.90554 0.965183 -0.102902 -1.87645e-010 -1.67843e-009 -1.54959e-009 -10.2786 0.731801 -0.0259123 -1.87633e-010 -1.67843e-009 -1.5496e-009 -2.22167 -0.733487 0.20892 -2.03217e-016 0 -3.88251e-019 1.29707 -20.8705 -21.756 -0.526573 49.5835 1.16399 0.349635 4.74917 -2.37662 2.03217e-016 0 3.88251e-019 -10.9789 -20.8036 -12.0277 0.0160233 17.9562 -0.390017 1.81508 -27.4423 6.37337 
171.884 79.9661 13.0172 4.37123 -9.88369 -123.813 0.456953 -3.59285 13.9759 -3.98624 -15.5935 3.83852 12.2598 2.25118 7.25603 -11.6073 17.114 17.5407 -0 0 0 -0 0 0 4.7635e-015 -3.99478e-013 3.22803e-013 64.5344 60.8395 -0.609989 -20.4031 -13.5275 39.668 -0.000791198 0.819348 0.11516 -8.90296e-010 -1.18572e-009 -1.28065e-009 -1.53528e-009 -2.05428e-009 -2.21077e-009 -8.90301e-010 -1.18571e-009 -1.28067e-009 7.73091 5.47488 0.417314 -8.90298e-010 -1.18572e-009 -1.28065e-009 2.90554 0.965183 0.102902 -8.90289e-010 -1.18572e-009 -1.28065e-009 10.2786 0.731801 0.0259123 -8.90295e-010 -1.18572e-009 -1.28064e-009 2.22167 -0.733487 -0.20892 4.73411e-015 -3.99461e-013 3.22593e-013 -64.2619 10.436 21.918 12.9953 -6.17433 -23.5489 0.00127082 -0.926498 0.1302 -3.73448e-010 -1.79467e-009 -8.27144e-010 -6.53754e-010 -3.11006e-009 -1.42806e-009 -3.73457e-010 -1.79467e-009 -8.27137e-010 -7.73091 5.47488 -0.417314 -3.73449e-010 -1.79468e-009 -8.27144e-010 -2.90554 0.965183 -0.102902 -3.73455e-010 -1.79468e-009 -8.27147e-010 -10.2786 0.731801 -0.0259123 -3.73443e-010 -1.79467e-009 -8.27156e-010 -2.22167 -0.733487 0.20892 -2.03217e-016 0 -3.88251e-019 0.570989 -22.1819 -20.0019 -0.514953 49.1439 1.18621 0.0625854 2.4415 -5.59555 2.03217e-016 0 3.88251e-019 -11.2707 -19.8974 -12.7279 0.0164896 17.6596 -0.342102 1.88633 -27.7941 6.22569 
172.442 80.1078 12.8887 4.17614 -9.6312 -124.508 0.214443 -3.32075 13.5437 -3.7026 -15.6601 3.74159 12.2574 2.38212 7.18213 -11.5165 17.2219 17.4718 -0 0 0 -0 0 0 -3.93284e-014 -4.64784e-013 4.2093e-013 66.4622 59.2799 -3.11642 -20.3702 -13.4846 39.5868 -0.000462304 0.651838 0.0916133 -1.06401e-009 -2.74931e-009 -2.08002e-009 -1.83509e-009 -4.75947e-009 -3.59458e-009 -1.06401e-009 -2.74931e-009 -2.08004e-009 7.73091 5.47488 0.417314 -1.06401e-009 -2.74931e-009 -2.08002e-009 2.90554 0.965183 0.102902 -1.064e-009 -2.74931e-009 -2.08002e-009 10.2786 0.731801 0.0259123 -1.06401e-009 -2.74931e-009 -2.08001e-009 2.22167 -0.733487 -0.20892 -3.93743e-014 -4.64771e-013 4.20697e-013 -63.8742 10.8786 20.961 13.4456 -6.51692 -24.4446 0.00299564 -1.54957 0.217809 -8.12869e-010 -1.79436e-009 1.05662e-009 -1.41903e-009 -3.11476e-009 1.83498e-009 -8.12876e-010 -1.79436e-009 1.05662e-009 -7.73091 5.47488 -0.417314 -8.12869e-010 -1.79437e-009 1.05662e-009 -2.90554 0.965183 -0.102902 -8.12876e-010 -1.79436e-009 1.05661e-009 -10.2786 0.731801 -0.0259123 -8.12863e-010 -1.79436e-009 1.05661e-009 -2.22167 -0.733487 0.20892 -2.03217e-016 0 -3.88251e-019 0.192046 -23.2959 -17.7916 -0.475499 48.0057 1.20733 -0.475493 0.790198 -9.73891 2.03217e-016 0 3.88251e-019 -11.4593 -18.9103 -13.4431 0.0183062 17.2195 -0.311225 1.98289 -27.9246 6.19645 
172.985 80.2828 12.7821 3.95801 -9.42356 -125.311 0.010354 -3.05731 13.124 -3.41985 -15.7313 3.64952 12.2151 2.47386 7.08542 -11.3802 17.3207 17.3455 -0 0 0 -0 0 0 -7.53002e-014 -5.03691e-013 5.281e-013 68.2668 57.732 -5.52125 -20.3323 -13.4355 39.4934 -0.000260786 0.499605 0.0702163 -1.13621e-009 -4.19878e-009 -2.89402e-009 -1.95964e-009 -7.2667e-009 -5.00446e-009 -1.1362e-009 -4.19878e-009 -2.89404e-009 7.73091 5.47488 0.417314 -1.13621e-009 -4.19878e-009 -2.89402e-009 2.90554 0.965183 0.102902 -1.1362e-009 -4.19878e-009 -2.89402e-009 10.2786 0.731801 0.0259123 -1.13621e-009 -4.19878e-009 -2.89401e-009 2.22167 -0.733487 -0.20892 -7.53611e-014 -5.03682e-013 5.27849e-013 -63.5545 11.3883 19.958 13.9225 -6.89098 -25.4023 0.00543198 -2.13144 0.299684 -1.20368e-009 -1.67531e-009 2.96378e-009 -2.09879e-009 -2.91263e-009 5.1383e-009 -1.20369e-009 -1.67531e-009 2.96378e-009 -7.73091 5.47488 -0.417314 -1.20368e-009 -1.67531e-009 2.96378e-009 -2.90554 0.965183 -0.102902 -1.20369e-009 -1.67531e-009 2.96378e-009 -10.2786 0.731801 -0.0259123 -1.20368e-009 -1.6753e-009 2.96377e-009 -2.22167 -0.733487 0.20892 -2.03217e-016 0 -3.88251e-019 0.0789963 -24.1731 -15.2633 -0.41527 46.304 1.20615 -1.20074 -0.806297 -13.6237 2.03217e-016 0 3.88251e-019 -11.5709 -17.8893 -14.1795 0.0203819 16.6509 -0.288796 2.10562 -27.9211 6.25924 
